<?xml version="1.0" encoding="UTF-8"?><svg id="BDYoga-Logo" xmlns="http://www.w3.org/2000/svg" viewBox="0 0 704.55 283.46"><defs><style>.cls-1{fill:#de2100;}.cls-2{fill:#591f24;}</style></defs><path class="cls-1" d="M555.47,68.98c-4.67-23.53-19.58-36.64-47.41-36.64-34.84,0-52.44,22.27-52.44,57.47s18.68,54.24,45.44,54.24c20.3,0,31.07-10.78,35.74-21.73h1.8v19.94h18.86v-56.57h-49.39v16.7h30.17c0,12.39-6.11,24.61-29.63,24.61s-32.51-14.19-32.51-37.18c0-24.43,8.8-39.69,31.79-39.69,16.16,0,24.43,7.72,28.56,22.99l19.04-4.13Zm45.44,30.53l4.49-13.29c3.77-10.96,7.72-23.17,10.96-33.94h4.49c3.23,10.78,7,22.99,10.78,33.94l4.49,13.29h-35.2Zm40.59,15.27l9.34,27.48h21.91l-40.05-107.76h-27.66l-40.05,107.76h21.19l9.34-27.48h45.98Zm-249.83,12.03c-23.17,0-33.41-15.45-33.41-38.79s10.42-37.9,33.59-37.9,33.41,15.27,33.41,37.9-10.24,38.79-33.59,38.79m.18,17.78c34.48,0,53.88-22.45,53.88-56.58s-19.94-55.86-53.88-55.86-53.88,21.91-53.88,55.86,19.22,56.58,53.88,56.58m-114.77-2.34h21.73v-48.13c24.96-30.53,42.93-60.89,53.52-91.42V0h-22.81c-6.11,25.32-19.22,54.06-39.69,79.38h-3.41C265.95,54.07,252.84,25.33,246.73,0h-23.35V2.7c10.78,30.53,28.56,60.89,53.7,91.42v48.13ZM139.51,34.49v107.76h43.82c33.77,0,54.24-20.65,54.24-54.78s-17.06-52.98-54.24-52.98h-43.82Zm20.47,17.06h20.65c25.86,0,36.46,10.6,36.46,35.92s-10.06,37.9-35.38,37.9h-21.73V51.55ZM36.6,34.49v107.76h49.39c27.3,0,38.26-11.85,38.26-29.27,0-15.27-7.9-22.09-26.58-24.07v-1.8c13.65-3.23,21.73-11.14,21.73-25.14,0-18.32-11.67-27.48-37.54-27.48H36.6Zm20.47,15.98h25.14c12.57,0,17.6,4.85,17.6,15.09,0,11.67-7.18,15.98-18.5,15.98h-24.25v-31.07Zm0,45.44h27.3c14.73,0,19.76,5.57,19.76,15.45,0,9.16-5.93,15.45-18.68,15.45h-28.38v-30.89Z"/><path class="cls-2" d="M307.98,263.12h-7.22c-.59,6.17-1.9,12.15-4.07,17.93v.39h5.19c2.82-5.91,4.86-12.02,6.11-18.32m298.46-16.09v15.76c0,5.78,2.89,10.24,9.65,10.24,3.09,0,4.66-.39,6.96-1.12l-.85-6.3c-1.51,.46-2.89,.79-4.46,.79-3.09,0-4.2-1.58-4.2-4.6v-14.78h9.06v-5.71h-9.06v-8.34h-7.09v8.34h-4.33v5.71h4.33Zm-6.37,27.19c0-4.79-3.15-7.62-9.65-7.62-3.35,0-6.9,.07-10.38,.07-2.04,0-3.02-.46-3.02-1.71,0-.66,.26-1.18,.79-1.97l.72-1.12c1.51,.39,3.22,.59,5.19,.59,8.6,0,13.26-3.35,13.26-8.86,0-4.07-3.41-5.78-7.49-6.57l.07-.59c2.63,.2,4.6,.33,6.24,.33h3.55v-5.45h-15.3c-8.54,0-13.59,3.81-13.59,10.77,0,4.66,2.43,8.01,7.03,9.52l-2.36,1.31c-2.1,1.18-3.48,2.49-3.48,4.14,0,2.17,1.45,3.61,4.2,4.14v.26c-4.2,.92-7.09,2.89-7.09,5.58,0,3.94,3.41,6.44,15.1,6.44s16.22-3.02,16.22-9.26m-15.83,4.14c-8.01,0-9.98-1.05-9.98-3.55,0-1.71,1.71-3.41,5.06-3.41h10.84c3.02,0,4.27,1.25,4.27,3.02,0,2.63-1.9,3.94-10.18,3.94m-.53-31.52c4.86,0,7.22,2.1,7.22,5.39s-2.04,5.39-7.16,5.39-6.96-2.1-6.96-5.39,1.97-5.39,6.9-5.39m-31.52,26.14c8.27,0,12.15-3.81,13.59-9.39l-6.04-1.71c-.85,2.96-2.56,5.32-7.49,5.32-5.25,0-8.08-2.82-8.6-8.4h22.26c.13-1.58,.13-2.95,.13-4.14,0-8.47-4.53-14.12-13.86-14.12s-15.56,6.17-15.56,16.61,6.11,15.83,15.56,15.83m-.2-26.99c4.93,0,7.29,2.76,7.55,8.08h-15.82c.66-5.52,3.48-8.08,8.27-8.08m-34.34,7.42l-3.02-12.08h-8.01l-2.95,12.08c-1.05,4.33-2.1,8.86-2.96,13.46h-1.18c-.92-4.6-2.04-8.86-3.28-13.59l-3.09-11.95h-7.29l9.19,30.86h9.06l3.09-13.46c.92-3.94,1.71-8.14,2.43-12.21h1.05c.66,4.14,1.45,8.21,2.43,12.21l3.22,13.46h9.26l9.19-30.86h-7.03l-2.76,11.95c-1.12,4.79-2.3,9-3.22,13.59h-1.18c-.85-4.66-1.9-9.19-2.96-13.46m-47.61,19.57c8.27,0,12.15-3.81,13.59-9.39l-6.04-1.71c-.85,2.96-2.56,5.32-7.49,5.32-5.25,0-8.08-2.82-8.6-8.4h22.26c.13-1.58,.13-2.95,.13-4.14,0-8.47-4.53-14.12-13.86-14.12s-15.56,6.17-15.56,16.61,6.11,15.83,15.56,15.83m-.2-26.99c4.92,0,7.29,2.76,7.55,8.08h-15.83c.66-5.52,3.48-8.08,8.27-8.08m-41.63,3.35v-19.31h-7.03v42.16h7.03v-8.21h.46c1.51,5.39,5.12,9.06,10.77,9.06,6.96,0,11.23-5.71,11.23-16.22s-4.07-16.29-11.36-16.29c-5.58,0-9,3.48-10.64,8.8h-.46Zm7.88,17.47c-4.73,0-7.88-3.55-7.88-8.73v-2.36c0-5.38,3.09-8.8,7.95-8.8,5.19,0,7.55,3.22,7.55,9.92s-2.43,9.98-7.62,9.98m-46.89,6.17c8.27,0,12.15-3.81,13.59-9.39l-6.04-1.71c-.85,2.96-2.56,5.32-7.48,5.32-5.25,0-8.08-2.82-8.6-8.4h22.26c.13-1.58,.13-2.95,.13-4.14,0-8.47-4.53-14.12-13.86-14.12s-15.56,6.17-15.56,16.61,6.11,15.83,15.56,15.83m-.2-26.99c4.93,0,7.29,2.76,7.55,8.08h-15.83c.66-5.52,3.48-8.08,8.27-8.08m-28.17,26.2h7.09v-30.86h-7.09v30.86Zm-.26-36.12h7.68v-5.71h-7.68v5.71Zm-14.84,27.97v8.14h7.03v-42.16h-7.03v19.37h-.46c-1.58-5.39-4.99-8.93-10.57-8.87-7.22-.07-11.43,5.78-11.43,16.35s4.14,16.15,11.23,16.15c5.52,0,9.19-3.68,10.77-9h.46Zm-7.88,2.69c-5.25,0-7.62-3.22-7.62-9.85s2.49-9.98,7.62-9.98c4.79,0,7.88,3.55,7.88,8.86v2.36c0,5.25-3.15,8.6-7.88,8.6m-43.21,7.49c0-4.79-3.15-7.62-9.65-7.62-3.35,0-6.9,.07-10.38,.07-2.04,0-3.02-.46-3.02-1.71,0-.66,.26-1.18,.79-1.97l.72-1.12c1.51,.39,3.22,.59,5.19,.59,8.6,0,13.26-3.35,13.26-8.86,0-4.07-3.41-5.78-7.49-6.57l.07-.59c2.63,.2,4.6,.33,6.24,.33h3.55v-5.45h-15.3c-8.54,0-13.59,3.81-13.59,10.77,0,4.66,2.43,8.01,7.03,9.52l-2.37,1.31c-2.1,1.18-3.48,2.49-3.48,4.14,0,2.17,1.44,3.61,4.2,4.14v.26c-4.2,.92-7.09,2.89-7.09,5.58,0,3.94,3.41,6.44,15.1,6.44s16.22-3.02,16.22-9.26m-15.83,4.14c-8.01,0-9.98-1.05-9.98-3.55,0-1.71,1.71-3.41,5.06-3.41h10.84c3.02,0,4.27,1.25,4.27,3.02,0,2.63-1.91,3.94-10.18,3.94m-.53-31.52c4.86,0,7.22,2.1,7.22,5.39s-2.04,5.39-7.16,5.39-6.96-2.1-6.96-5.39,1.97-5.39,6.9-5.39m-39.8,25.35v-17.47c0-4.66,3.15-7.81,7.88-7.81,4.27,0,5.91,2.76,5.91,6.5v18.78h7.03v-20.62c0-6.7-3.09-11.03-9.52-11.03-5.19,0-9.13,3.22-10.84,8.93h-.59v-8.14h-6.89v30.86h7.03Zm-21.28-8.14v8.14h6.9v-30.86h-7.09v17.47c0,4.66-3.09,7.81-7.88,7.81-4.2,0-5.84-2.76-5.84-6.5v-18.78h-7.09v20.62c0,6.7,3.09,11.1,9.59,11.1,5.12,0,9.06-3.28,10.77-9h.66Zm-42.35-17.01v15.76c0,5.78,2.89,10.24,9.65,10.24,3.09,0,4.66-.39,6.96-1.12l-.85-6.3c-1.51,.46-2.89,.79-4.47,.79-3.09,0-4.2-1.58-4.2-4.6v-14.78h9.06v-5.71h-9.06v-8.34h-7.09v8.34h-4.33v5.71h4.33Zm-9.32-17.01h-7.09v42.16h7.09v-42.16Zm-21.67,34.02v8.14h7.03v-30.86h-7.03v8.08h-.46c-1.58-5.39-4.99-8.93-10.57-8.87-7.22-.07-11.43,5.78-11.43,16.35s4.14,16.15,11.23,16.15c5.52,0,9.19-3.68,10.77-9h.46Zm-7.88,2.69c-5.25,0-7.62-3.22-7.62-9.85s2.5-9.98,7.62-9.98c4.79,0,7.88,3.55,7.88,8.86v2.36c0,5.25-3.15,8.6-7.88,8.6m-27.97,5.45h7.49v-39.4h-7.49v16.42h-19.04v-16.42h-7.49v39.4h7.49v-16.29h19.04v16.29Z"/><rect class="cls-1" y="184.47" width="704.54" height="8.89"/></svg>